# xmcd
#
# Track frame offsets:
#	150
#	33820
#	48880
#	71543
#	100501
#	116768
#	142072
#	159387
#	174272
#	193520
#	220223
#	237363
#	251429
#	264769
#	289060
#	302233
#
# Disc length: 4361 seconds
#
# Revision: 1
# Processed by: cddbd v1.4PL0 Copyright (c) Steve Scherf et al.
# Submitted via: EasyCDDAExtractor 5.0.6
#
DISCID=d7110710
DTITLE=Robin Trower  -  Essential
DYEAR=1900
DGENRE=
TTITLE0=Too Rolling Stoned
TTITLE1=Lady Love
TTITLE2=Bridge Of Sighs
TTITLE3=Daydream
TTITLE4=Shame The Devil
TTITLE5=Hannah
TTITLE6=Messin' The Blues
TTITLE7=Pride
TTITLE8=Alethea
TTITLE9=Confessin' Midnight
TTITLE10=Victims Of The Fury
TTITLE11=Gonna Be More Suspicious
TTITLE12=Sweet Wine Of Love
TTITLE13=I Can't Wait Much Longer
TTITLE14=Into Money
TTITLE15=Bluebird
EXTD=
EXTT0=
EXTT1=
EXTT2=
EXTT3=
EXTT4=
EXTT5=
EXTT6=
EXTT7=
EXTT8=
EXTT9=
EXTT10=
EXTT11=
EXTT12=
EXTT13=
EXTT14=
EXTT15=
PLAYORDER=
